<svg width="130" height="40" viewBox="0 0 130 40" fill="none" xmlns="http://www.w3.org/2000/svg">
<g clip-path="url(#clip0_9299_150)">
<circle cx="20" cy="20" r="19" fill="#F2F6FF" stroke="white" stroke-width="2"/>
<path d="M19.23 22.03C19.3633 22.1567 19.43 22.3 19.43 22.46C19.43 22.6133 19.37 22.75 19.25 22.87C19.1367 22.9833 19 23.04 18.84 23.04C18.6733 23.04 18.52 22.97 18.38 22.83L15.05 19.71V22.41C15.05 22.6033 14.99 22.76 14.87 22.88C14.7567 23 14.6 23.06 14.4 23.06C14.2067 23.06 14.05 23 13.93 22.88C13.8167 22.76 13.76 22.6033 13.76 22.41V16.54C13.76 16.3467 13.8167 16.1933 13.93 16.08C14.05 15.96 14.2067 15.9 14.4 15.9C14.6 15.9 14.7567 15.96 14.87 16.08C14.99 16.1933 15.05 16.3467 15.05 16.54V19.11L18.27 16.09C18.39 15.97 18.5267 15.91 18.68 15.91C18.8333 15.91 18.9667 15.97 19.08 16.09C19.2 16.2033 19.26 16.3367 19.26 16.49C19.26 16.6433 19.1933 16.7833 19.06 16.91L16.37 19.37L19.23 22.03ZM26.0016 22.19C26.0816 22.31 26.1216 22.4267 26.1216 22.54C26.1216 22.6933 26.0582 22.82 25.9316 22.92C25.8116 23.02 25.6682 23.07 25.5016 23.07C25.3949 23.07 25.2916 23.0467 25.1916 23C25.0982 22.9467 25.0182 22.87 24.9516 22.77L23.6216 20.75C23.4882 20.5367 23.3449 20.3867 23.1916 20.3C23.0449 20.2133 22.8516 20.17 22.6116 20.17H21.6316V22.41C21.6316 22.61 21.5749 22.77 21.4616 22.89C21.3482 23.0033 21.1949 23.06 21.0016 23.06C20.8082 23.06 20.6516 23.0033 20.5316 22.89C20.4182 22.77 20.3616 22.61 20.3616 22.41V16.56C20.3616 16.3667 20.4149 16.2167 20.5216 16.11C20.6349 16.0033 20.7882 15.95 20.9816 15.95H23.4816C24.2816 15.95 24.8882 16.13 25.3016 16.49C25.7216 16.8433 25.9316 17.3567 25.9316 18.03C25.9316 18.5767 25.7749 19.0267 25.4616 19.38C25.1549 19.7267 24.7182 19.95 24.1516 20.05C24.3449 20.0967 24.5149 20.18 24.6616 20.3C24.8082 20.42 24.9516 20.5867 25.0916 20.8L26.0016 22.19ZM23.3016 19.18C23.7882 19.18 24.1449 19.09 24.3716 18.91C24.5982 18.7233 24.7116 18.44 24.7116 18.06C24.7116 17.6733 24.5982 17.3933 24.3716 17.22C24.1449 17.04 23.7882 16.95 23.3016 16.95H21.6216V19.18H23.3016Z" fill="#234CAD"/>
</g>
<g clip-path="url(#clip1_9299_150)">
<circle cx="50" cy="20" r="19" fill="#F2F6FF" stroke="white" stroke-width="2"/>
<path d="M51.02 15.9C51.2067 15.9 51.3567 15.96 51.47 16.08C51.5833 16.1933 51.64 16.3467 51.64 16.54V22.46C51.64 22.6467 51.5867 22.7933 51.48 22.9C51.3733 23.0067 51.2333 23.06 51.06 23.06C50.8867 23.06 50.75 23.0067 50.65 22.9C50.55 22.7933 50.5 22.6467 50.5 22.46V18.34L48.8 21.56C48.72 21.7067 48.6333 21.8167 48.54 21.89C48.4467 21.9567 48.3367 21.99 48.21 21.99C48.0833 21.99 47.9733 21.9567 47.88 21.89C47.7867 21.8233 47.7 21.7133 47.62 21.56L45.91 18.39V22.46C45.91 22.64 45.8567 22.7867 45.75 22.9C45.65 23.0067 45.5133 23.06 45.34 23.06C45.1667 23.06 45.03 23.0067 44.93 22.9C44.83 22.7933 44.78 22.6467 44.78 22.46V16.54C44.78 16.3467 44.8333 16.1933 44.94 16.08C45.0533 15.96 45.2033 15.9 45.39 15.9C45.65 15.9 45.8533 16.0433 46 16.33L48.22 20.56L50.43 16.33C50.5767 16.0433 50.7733 15.9 51.02 15.9ZM53.0382 23.06C52.5249 23.08 52.2682 22.9033 52.2682 22.53C52.2682 22.37 52.3115 22.25 52.3982 22.17C52.4782 22.0833 52.6082 22.0333 52.7882 22.02L53.1082 22C53.3815 21.9867 53.5882 21.9 53.7282 21.74C53.8682 21.58 53.9382 21.3367 53.9382 21.01V16.54C53.9382 16.3467 53.9949 16.1933 54.1082 16.08C54.2282 15.96 54.3849 15.9 54.5782 15.9C54.7782 15.9 54.9349 15.96 55.0482 16.08C55.1682 16.1933 55.2282 16.3467 55.2282 16.54V21.01C55.2282 22.27 54.6049 22.9467 53.3582 23.04L53.0382 23.06Z" fill="#234CAD"/>
</g>
<g clip-path="url(#clip2_9299_150)">
<circle cx="80" cy="20" r="19" fill="#F2F6FF" stroke="white" stroke-width="2"/>
<path d="M78.9 23.09C78.2133 23.09 77.6167 22.9433 77.11 22.65C76.61 22.3567 76.2233 21.9367 75.95 21.39C75.6767 20.8433 75.54 20.2033 75.54 19.47C75.54 18.7367 75.6733 18.1 75.94 17.56C76.2133 17.0133 76.6033 16.5933 77.11 16.3C77.6167 16.0067 78.2133 15.86 78.9 15.86C79.5867 15.86 80.18 16.0067 80.68 16.3C81.1867 16.5933 81.5733 17.0133 81.84 17.56C82.1133 18.1 82.25 18.7367 82.25 19.47C82.25 20.2033 82.1133 20.8433 81.84 21.39C81.5667 21.9367 81.1767 22.3567 80.67 22.65C80.17 22.9433 79.58 23.09 78.9 23.09ZM78.9 22.06C79.5467 22.06 80.05 21.8367 80.41 21.39C80.7767 20.9433 80.96 20.3033 80.96 19.47C80.96 18.6367 80.7767 18 80.41 17.56C80.05 17.1133 79.5467 16.89 78.9 16.89C78.2467 16.89 77.7367 17.1133 77.37 17.56C77.01 18 76.83 18.6367 76.83 19.47C76.83 20.3033 77.01 20.9433 77.37 21.39C77.7367 21.8367 78.2467 22.06 78.9 22.06ZM84.193 23.06C83.9996 23.06 83.843 23 83.723 22.88C83.6096 22.76 83.553 22.6033 83.553 22.41V16.54C83.553 16.3467 83.6096 16.1933 83.723 16.08C83.843 15.96 83.9996 15.9 84.193 15.9C84.393 15.9 84.5496 15.96 84.663 16.08C84.783 16.1933 84.843 16.3467 84.843 16.54V22.41C84.843 22.6033 84.783 22.76 84.663 22.88C84.5496 23 84.393 23.06 84.193 23.06Z" fill="#234CAD"/>
</g>
<g clip-path="url(#clip3_9299_150)">
<circle cx="110" cy="20" r="19" fill="#F2F6FF" stroke="white" stroke-width="2"/>
<path d="M109 19.7C109.127 19.7 109.23 19.7433 109.31 19.83C109.397 19.91 109.44 20.0133 109.44 20.14C109.44 20.2667 109.397 20.3733 109.31 20.46C109.23 20.54 109.127 20.58 109 20.58H107.44V22.13C107.44 22.2567 107.397 22.3633 107.31 22.45C107.23 22.5367 107.127 22.58 107 22.58C106.873 22.58 106.767 22.5367 106.68 22.45C106.6 22.3633 106.56 22.2567 106.56 22.13V20.58H105C104.873 20.58 104.767 20.54 104.68 20.46C104.6 20.3733 104.56 20.2667 104.56 20.14C104.56 20.0133 104.6 19.91 104.68 19.83C104.767 19.7433 104.873 19.7 105 19.7H106.56V18.14C106.56 18.0133 106.6 17.91 106.68 17.83C106.767 17.7433 106.873 17.7 107 17.7C107.127 17.7 107.23 17.7433 107.31 17.83C107.397 17.91 107.44 18.0133 107.44 18.14V19.7H109ZM114.076 19.38C114.496 19.4867 114.816 19.69 115.036 19.99C115.263 20.2833 115.376 20.65 115.376 21.09C115.376 21.6967 115.153 22.18 114.706 22.54C114.259 22.9 113.656 23.08 112.896 23.08C112.463 23.08 112.046 23.0133 111.646 22.88C111.246 22.7467 110.906 22.56 110.626 22.32C110.473 22.1867 110.396 22.03 110.396 21.85C110.396 21.7033 110.436 21.58 110.516 21.48C110.603 21.3733 110.703 21.32 110.816 21.32C110.883 21.32 110.943 21.3333 110.996 21.36C111.049 21.38 111.123 21.4167 111.216 21.47C111.496 21.6567 111.763 21.8 112.016 21.9C112.269 22 112.546 22.05 112.846 22.05C113.286 22.05 113.613 21.9633 113.826 21.79C114.039 21.61 114.146 21.34 114.146 20.98C114.146 20.6267 114.033 20.3667 113.806 20.2C113.586 20.0267 113.243 19.94 112.776 19.94H112.206C112.053 19.94 111.933 19.89 111.846 19.79C111.766 19.6833 111.726 19.5633 111.726 19.43C111.726 19.29 111.766 19.17 111.846 19.07C111.933 18.97 112.053 18.92 112.206 18.92H112.606C113.519 18.92 113.976 18.5767 113.976 17.89C113.976 17.57 113.879 17.3233 113.686 17.15C113.493 16.9767 113.226 16.89 112.886 16.89C112.399 16.89 111.879 17.0833 111.326 17.47C111.233 17.5233 111.159 17.5633 111.106 17.59C111.053 17.61 110.993 17.62 110.926 17.62C110.813 17.62 110.713 17.57 110.626 17.47C110.546 17.3633 110.506 17.2367 110.506 17.09C110.506 16.99 110.523 16.9067 110.556 16.84C110.596 16.7667 110.656 16.6933 110.736 16.62C111.016 16.3867 111.349 16.2033 111.736 16.07C112.129 15.93 112.529 15.86 112.936 15.86C113.629 15.86 114.179 16.03 114.586 16.37C114.999 16.71 115.206 17.1633 115.206 17.73C115.199 18.1167 115.096 18.4567 114.896 18.75C114.703 19.0367 114.429 19.2467 114.076 19.38Z" fill="#234CAD"/>
</g>
<defs>
<clipPath id="clip0_9299_150">
<rect width="40" height="40" fill="white"/>
</clipPath>
<clipPath id="clip1_9299_150">
<rect width="40" height="40" fill="white" transform="translate(30)"/>
</clipPath>
<clipPath id="clip2_9299_150">
<rect width="40" height="40" fill="white" transform="translate(60)"/>
</clipPath>
<clipPath id="clip3_9299_150">
<rect width="40" height="40" fill="white" transform="translate(90)"/>
</clipPath>
</defs>
</svg>
